<mxfile host="app.diagrams.net" modified="2024-04-26T22:53:10.704Z" agent="Mozilla/5.0 (Windows NT 10.0; Win64; x64; rv:123.0) Gecko/20100101 Firefox/123.0" etag="RgJJRkfxSzXpR7zA3ag9" version="24.2.8" type="github">
  <diagram name="Seite-1" id="N6T7R8GPfPuLxDHAY0fQ">
    <mxGraphModel dx="875" dy="443" grid="1" gridSize="10" guides="1" tooltips="1" connect="1" arrows="1" fold="1" page="1" pageScale="1" pageWidth="827" pageHeight="1169" math="1" shadow="0">
      <root>
        <mxCell id="0" />
        <mxCell id="1" parent="0" />
        <mxCell id="-28Fn-hyhFflDtnvuSkC-10" value="" style="rounded=0;whiteSpace=wrap;html=1;" parent="1" vertex="1">
          <mxGeometry x="400" y="120" width="80" height="100" as="geometry" />
        </mxCell>
        <mxCell id="-28Fn-hyhFflDtnvuSkC-5" value="&lt;div&gt;$$\textrm{Q}$$&lt;/div&gt;" style="text;html=1;align=center;verticalAlign=middle;whiteSpace=wrap;rounded=0;" parent="1" vertex="1">
          <mxGeometry x="440" y="130" width="60" height="30" as="geometry" />
        </mxCell>
        <mxCell id="-28Fn-hyhFflDtnvuSkC-6" value="&lt;div&gt;$$\overline{\textrm{Q}}$$&lt;/div&gt;" style="text;html=1;align=center;verticalAlign=middle;whiteSpace=wrap;rounded=0;" parent="1" vertex="1">
          <mxGeometry x="440" y="180" width="60" height="30" as="geometry" />
        </mxCell>
        <mxCell id="-28Fn-hyhFflDtnvuSkC-11" value="" style="triangle;whiteSpace=wrap;html=1;rotation=0;" parent="1" vertex="1">
          <mxGeometry x="400" y="185" width="10" height="20" as="geometry" />
        </mxCell>
        <mxCell id="-28Fn-hyhFflDtnvuSkC-12" value="&lt;div&gt;$$\textrm{clk}$$&lt;/div&gt;" style="text;html=1;align=center;verticalAlign=middle;whiteSpace=wrap;rounded=0;" parent="1" vertex="1">
          <mxGeometry x="394" y="180" width="60" height="30" as="geometry" />
        </mxCell>
        <mxCell id="-28Fn-hyhFflDtnvuSkC-13" value="&lt;div&gt;$$\textrm{D}$$&lt;/div&gt;" style="text;html=1;align=center;verticalAlign=middle;whiteSpace=wrap;rounded=0;" parent="1" vertex="1">
          <mxGeometry x="380" y="130" width="60" height="30" as="geometry" />
        </mxCell>
        <mxCell id="-28Fn-hyhFflDtnvuSkC-14" value="" style="endArrow=none;html=1;rounded=0;" parent="1" edge="1">
          <mxGeometry width="50" height="50" relative="1" as="geometry">
            <mxPoint x="340" y="145" as="sourcePoint" />
            <mxPoint x="400" y="144.76" as="targetPoint" />
          </mxGeometry>
        </mxCell>
        <mxCell id="-28Fn-hyhFflDtnvuSkC-15" value="" style="endArrow=none;html=1;rounded=0;" parent="1" edge="1">
          <mxGeometry width="50" height="50" relative="1" as="geometry">
            <mxPoint x="340" y="90" as="sourcePoint" />
            <mxPoint x="340" y="145" as="targetPoint" />
            <Array as="points" />
          </mxGeometry>
        </mxCell>
        <mxCell id="-28Fn-hyhFflDtnvuSkC-16" value="" style="endArrow=none;html=1;rounded=0;" parent="1" edge="1">
          <mxGeometry width="50" height="50" relative="1" as="geometry">
            <mxPoint x="340" y="90" as="sourcePoint" />
            <mxPoint x="530" y="90" as="targetPoint" />
          </mxGeometry>
        </mxCell>
        <mxCell id="-28Fn-hyhFflDtnvuSkC-18" value="" style="endArrow=none;html=1;rounded=0;" parent="1" edge="1">
          <mxGeometry width="50" height="50" relative="1" as="geometry">
            <mxPoint x="530" y="195" as="sourcePoint" />
            <mxPoint x="530" y="90" as="targetPoint" />
          </mxGeometry>
        </mxCell>
        <mxCell id="-28Fn-hyhFflDtnvuSkC-19" value="" style="endArrow=none;html=1;rounded=0;" parent="1" edge="1">
          <mxGeometry width="50" height="50" relative="1" as="geometry">
            <mxPoint x="480" y="194.95" as="sourcePoint" />
            <mxPoint x="530" y="194.95" as="targetPoint" />
          </mxGeometry>
        </mxCell>
        <mxCell id="-28Fn-hyhFflDtnvuSkC-20" value="" style="endArrow=none;html=1;rounded=0;" parent="1" edge="1">
          <mxGeometry width="50" height="50" relative="1" as="geometry">
            <mxPoint x="280" y="195" as="sourcePoint" />
            <mxPoint x="400" y="195" as="targetPoint" />
          </mxGeometry>
        </mxCell>
        <mxCell id="-28Fn-hyhFflDtnvuSkC-21" value="" style="endArrow=none;html=1;rounded=0;" parent="1" edge="1">
          <mxGeometry width="50" height="50" relative="1" as="geometry">
            <mxPoint x="480" y="144.8" as="sourcePoint" />
            <mxPoint x="640" y="145" as="targetPoint" />
          </mxGeometry>
        </mxCell>
        <mxCell id="-28Fn-hyhFflDtnvuSkC-150" value="" style="endArrow=classic;html=1;rounded=0;" parent="1" edge="1">
          <mxGeometry width="50" height="50" relative="1" as="geometry">
            <mxPoint x="464.76" y="90" as="sourcePoint" />
            <mxPoint x="414.76" y="90" as="targetPoint" />
          </mxGeometry>
        </mxCell>
        <mxCell id="-28Fn-hyhFflDtnvuSkC-170" value="&lt;div&gt;$$\textrm{Feedback loop}$$&lt;/div&gt;" style="text;html=1;align=center;verticalAlign=middle;whiteSpace=wrap;rounded=0;" parent="1" vertex="1">
          <mxGeometry x="409.76" y="60" width="60" height="30" as="geometry" />
        </mxCell>
        <mxCell id="-28Fn-hyhFflDtnvuSkC-171" value="&lt;div&gt;$$\textrm{Input frequency}$$&lt;/div&gt;" style="text;html=1;align=center;verticalAlign=middle;whiteSpace=wrap;rounded=0;" parent="1" vertex="1">
          <mxGeometry x="300" y="170" width="60" height="30" as="geometry" />
        </mxCell>
        <mxCell id="-28Fn-hyhFflDtnvuSkC-172" value="&lt;div&gt;$$f_{in}$$&lt;/div&gt;" style="text;html=1;align=center;verticalAlign=middle;whiteSpace=wrap;rounded=0;" parent="1" vertex="1">
          <mxGeometry x="300" y="190" width="60" height="30" as="geometry" />
        </mxCell>
        <mxCell id="-28Fn-hyhFflDtnvuSkC-173" value="&lt;div&gt;$$\textrm{Output frequency}$$&lt;/div&gt;" style="text;html=1;align=center;verticalAlign=middle;whiteSpace=wrap;rounded=0;" parent="1" vertex="1">
          <mxGeometry x="560" y="120" width="60" height="30" as="geometry" />
        </mxCell>
        <mxCell id="-28Fn-hyhFflDtnvuSkC-174" value="&lt;div&gt;$$f_{out} = f_{in} / 2$$&lt;/div&gt;" style="text;html=1;align=center;verticalAlign=middle;whiteSpace=wrap;rounded=0;" parent="1" vertex="1">
          <mxGeometry x="560" y="140" width="60" height="30" as="geometry" />
        </mxCell>
        <mxCell id="-28Fn-hyhFflDtnvuSkC-181" value="" style="endArrow=classic;html=1;rounded=0;" parent="1" edge="1">
          <mxGeometry width="50" height="50" relative="1" as="geometry">
            <mxPoint x="240" y="520" as="sourcePoint" />
            <mxPoint x="760" y="520" as="targetPoint" />
          </mxGeometry>
        </mxCell>
        <mxCell id="-28Fn-hyhFflDtnvuSkC-184" value="&lt;div&gt;$$\textrm{time}$$&lt;/div&gt;" style="text;html=1;align=center;verticalAlign=middle;whiteSpace=wrap;rounded=0;" parent="1" vertex="1">
          <mxGeometry x="440" y="520" width="60" height="30" as="geometry" />
        </mxCell>
        <mxCell id="-28Fn-hyhFflDtnvuSkC-185" value="&lt;div&gt;&lt;b&gt;$$\textrm{Input frequency}$$&lt;/b&gt;&lt;/div&gt;" style="text;html=1;align=center;verticalAlign=middle;whiteSpace=wrap;rounded=0;fontStyle=0" parent="1" vertex="1">
          <mxGeometry x="110.64" y="261" width="110" height="65" as="geometry" />
        </mxCell>
        <mxCell id="-28Fn-hyhFflDtnvuSkC-186" value="&lt;div&gt;$$\textrm{Output frequency}$$&lt;/div&gt;" style="text;html=1;align=center;verticalAlign=middle;whiteSpace=wrap;rounded=0;" parent="1" vertex="1">
          <mxGeometry x="105.64" y="360" width="120" height="30" as="geometry" />
        </mxCell>
        <mxCell id="-28Fn-hyhFflDtnvuSkC-188" value="&lt;div&gt;$$\textrm{(a)}$$&lt;/div&gt;" style="text;html=1;align=center;verticalAlign=middle;whiteSpace=wrap;rounded=0;" parent="1" vertex="1">
          <mxGeometry x="156.64" y="345" width="18" height="15" as="geometry" />
        </mxCell>
        <mxCell id="-28Fn-hyhFflDtnvuSkC-189" value="&lt;div&gt;$$\textrm{(b)}$$&lt;/div&gt;" style="text;html=1;align=center;verticalAlign=middle;whiteSpace=wrap;rounded=0;" parent="1" vertex="1">
          <mxGeometry x="150.64" y="425" width="30" height="15" as="geometry" />
        </mxCell>
        <mxCell id="-28Fn-hyhFflDtnvuSkC-109" value="" style="endArrow=none;html=1;rounded=0;" parent="1" edge="1">
          <mxGeometry width="50" height="50" relative="1" as="geometry">
            <mxPoint x="761" y="436" as="sourcePoint" />
            <mxPoint x="720" y="436" as="targetPoint" />
          </mxGeometry>
        </mxCell>
        <mxCell id="-28Fn-hyhFflDtnvuSkC-112" value="" style="endArrow=none;html=1;rounded=0;" parent="1" edge="1">
          <mxGeometry width="50" height="50" relative="1" as="geometry">
            <mxPoint x="721" y="436" as="sourcePoint" />
            <mxPoint x="681" y="436" as="targetPoint" />
          </mxGeometry>
        </mxCell>
        <mxCell id="-28Fn-hyhFflDtnvuSkC-113" value="" style="endArrow=none;html=1;rounded=0;" parent="1" edge="1">
          <mxGeometry width="50" height="50" relative="1" as="geometry">
            <mxPoint x="681" y="436" as="sourcePoint" />
            <mxPoint x="681" y="476" as="targetPoint" />
          </mxGeometry>
        </mxCell>
        <mxCell id="-28Fn-hyhFflDtnvuSkC-114" value="" style="endArrow=none;html=1;rounded=0;" parent="1" edge="1">
          <mxGeometry width="50" height="50" relative="1" as="geometry">
            <mxPoint x="681" y="476" as="sourcePoint" />
            <mxPoint x="641" y="476" as="targetPoint" />
          </mxGeometry>
        </mxCell>
        <mxCell id="-28Fn-hyhFflDtnvuSkC-115" value="" style="endArrow=none;html=1;rounded=0;" parent="1" edge="1">
          <mxGeometry width="50" height="50" relative="1" as="geometry">
            <mxPoint x="601" y="476" as="sourcePoint" />
            <mxPoint x="601" y="436" as="targetPoint" />
          </mxGeometry>
        </mxCell>
        <mxCell id="-28Fn-hyhFflDtnvuSkC-116" value="" style="endArrow=none;html=1;rounded=0;" parent="1" edge="1">
          <mxGeometry width="50" height="50" relative="1" as="geometry">
            <mxPoint x="641" y="476" as="sourcePoint" />
            <mxPoint x="601" y="476" as="targetPoint" />
          </mxGeometry>
        </mxCell>
        <mxCell id="-28Fn-hyhFflDtnvuSkC-117" value="" style="endArrow=none;html=1;rounded=0;" parent="1" edge="1">
          <mxGeometry width="50" height="50" relative="1" as="geometry">
            <mxPoint x="601" y="436" as="sourcePoint" />
            <mxPoint x="560" y="436" as="targetPoint" />
          </mxGeometry>
        </mxCell>
        <mxCell id="-28Fn-hyhFflDtnvuSkC-118" value="" style="endArrow=none;html=1;rounded=0;" parent="1" edge="1">
          <mxGeometry width="50" height="50" relative="1" as="geometry">
            <mxPoint x="561" y="436" as="sourcePoint" />
            <mxPoint x="521" y="436" as="targetPoint" />
          </mxGeometry>
        </mxCell>
        <mxCell id="-28Fn-hyhFflDtnvuSkC-119" value="" style="endArrow=none;html=1;rounded=0;" parent="1" edge="1">
          <mxGeometry width="50" height="50" relative="1" as="geometry">
            <mxPoint x="521" y="436" as="sourcePoint" />
            <mxPoint x="521" y="476" as="targetPoint" />
          </mxGeometry>
        </mxCell>
        <mxCell id="-28Fn-hyhFflDtnvuSkC-120" value="" style="endArrow=none;html=1;rounded=0;" parent="1" edge="1">
          <mxGeometry width="50" height="50" relative="1" as="geometry">
            <mxPoint x="521" y="476" as="sourcePoint" />
            <mxPoint x="481" y="476" as="targetPoint" />
          </mxGeometry>
        </mxCell>
        <mxCell id="-28Fn-hyhFflDtnvuSkC-121" value="" style="endArrow=none;html=1;rounded=0;" parent="1" edge="1">
          <mxGeometry width="50" height="50" relative="1" as="geometry">
            <mxPoint x="441" y="476" as="sourcePoint" />
            <mxPoint x="441" y="436" as="targetPoint" />
          </mxGeometry>
        </mxCell>
        <mxCell id="-28Fn-hyhFflDtnvuSkC-122" value="" style="endArrow=none;html=1;rounded=0;" parent="1" edge="1">
          <mxGeometry width="50" height="50" relative="1" as="geometry">
            <mxPoint x="481" y="476" as="sourcePoint" />
            <mxPoint x="441" y="476" as="targetPoint" />
          </mxGeometry>
        </mxCell>
        <mxCell id="-28Fn-hyhFflDtnvuSkC-123" value="" style="endArrow=none;html=1;rounded=0;" parent="1" edge="1">
          <mxGeometry width="50" height="50" relative="1" as="geometry">
            <mxPoint x="441" y="436" as="sourcePoint" />
            <mxPoint x="400" y="436" as="targetPoint" />
          </mxGeometry>
        </mxCell>
        <mxCell id="-28Fn-hyhFflDtnvuSkC-124" value="" style="endArrow=none;html=1;rounded=0;" parent="1" edge="1">
          <mxGeometry width="50" height="50" relative="1" as="geometry">
            <mxPoint x="401" y="436" as="sourcePoint" />
            <mxPoint x="361" y="436" as="targetPoint" />
          </mxGeometry>
        </mxCell>
        <mxCell id="-28Fn-hyhFflDtnvuSkC-125" value="" style="endArrow=none;html=1;rounded=0;" parent="1" edge="1">
          <mxGeometry width="50" height="50" relative="1" as="geometry">
            <mxPoint x="361" y="436" as="sourcePoint" />
            <mxPoint x="361" y="476" as="targetPoint" />
          </mxGeometry>
        </mxCell>
        <mxCell id="-28Fn-hyhFflDtnvuSkC-126" value="" style="endArrow=none;html=1;rounded=0;" parent="1" edge="1">
          <mxGeometry width="50" height="50" relative="1" as="geometry">
            <mxPoint x="361" y="476" as="sourcePoint" />
            <mxPoint x="321" y="476" as="targetPoint" />
          </mxGeometry>
        </mxCell>
        <mxCell id="-28Fn-hyhFflDtnvuSkC-127" value="" style="endArrow=none;html=1;rounded=0;" parent="1" edge="1">
          <mxGeometry width="50" height="50" relative="1" as="geometry">
            <mxPoint x="281" y="476" as="sourcePoint" />
            <mxPoint x="281" y="436" as="targetPoint" />
          </mxGeometry>
        </mxCell>
        <mxCell id="-28Fn-hyhFflDtnvuSkC-128" value="" style="endArrow=none;html=1;rounded=0;" parent="1" edge="1">
          <mxGeometry width="50" height="50" relative="1" as="geometry">
            <mxPoint x="321" y="476" as="sourcePoint" />
            <mxPoint x="281" y="476" as="targetPoint" />
          </mxGeometry>
        </mxCell>
        <mxCell id="-28Fn-hyhFflDtnvuSkC-129" value="" style="endArrow=none;html=1;rounded=0;" parent="1" edge="1">
          <mxGeometry width="50" height="50" relative="1" as="geometry">
            <mxPoint x="281" y="436" as="sourcePoint" />
            <mxPoint x="240" y="436" as="targetPoint" />
          </mxGeometry>
        </mxCell>
        <mxCell id="-28Fn-hyhFflDtnvuSkC-22" value="" style="endArrow=none;html=1;rounded=0;" parent="1" edge="1">
          <mxGeometry width="50" height="50" relative="1" as="geometry">
            <mxPoint x="280.64" y="316" as="sourcePoint" />
            <mxPoint x="280.64" y="276" as="targetPoint" />
          </mxGeometry>
        </mxCell>
        <mxCell id="-28Fn-hyhFflDtnvuSkC-23" value="" style="endArrow=none;html=1;rounded=0;" parent="1" edge="1">
          <mxGeometry width="50" height="50" relative="1" as="geometry">
            <mxPoint x="280.64" y="276" as="sourcePoint" />
            <mxPoint x="320.64" y="276" as="targetPoint" />
          </mxGeometry>
        </mxCell>
        <mxCell id="-28Fn-hyhFflDtnvuSkC-24" value="" style="endArrow=none;html=1;rounded=0;" parent="1" edge="1">
          <mxGeometry width="50" height="50" relative="1" as="geometry">
            <mxPoint x="320.64" y="276" as="sourcePoint" />
            <mxPoint x="320.64" y="316" as="targetPoint" />
          </mxGeometry>
        </mxCell>
        <mxCell id="-28Fn-hyhFflDtnvuSkC-30" value="" style="endArrow=none;html=1;rounded=0;" parent="1" edge="1">
          <mxGeometry width="50" height="50" relative="1" as="geometry">
            <mxPoint x="360.15999999999997" y="316" as="sourcePoint" />
            <mxPoint x="360.15999999999997" y="276" as="targetPoint" />
          </mxGeometry>
        </mxCell>
        <mxCell id="-28Fn-hyhFflDtnvuSkC-31" value="" style="endArrow=none;html=1;rounded=0;" parent="1" edge="1">
          <mxGeometry width="50" height="50" relative="1" as="geometry">
            <mxPoint x="360.15999999999997" y="276" as="sourcePoint" />
            <mxPoint x="400.15999999999997" y="276" as="targetPoint" />
          </mxGeometry>
        </mxCell>
        <mxCell id="-28Fn-hyhFflDtnvuSkC-32" value="" style="endArrow=none;html=1;rounded=0;" parent="1" edge="1">
          <mxGeometry width="50" height="50" relative="1" as="geometry">
            <mxPoint x="400.15999999999997" y="276" as="sourcePoint" />
            <mxPoint x="400.15999999999997" y="316" as="targetPoint" />
          </mxGeometry>
        </mxCell>
        <mxCell id="-28Fn-hyhFflDtnvuSkC-33" value="" style="endArrow=none;html=1;rounded=0;" parent="1" edge="1">
          <mxGeometry width="50" height="50" relative="1" as="geometry">
            <mxPoint x="400.15999999999997" y="316" as="sourcePoint" />
            <mxPoint x="440.15999999999997" y="316" as="targetPoint" />
          </mxGeometry>
        </mxCell>
        <mxCell id="-28Fn-hyhFflDtnvuSkC-34" value="" style="endArrow=none;html=1;rounded=0;" parent="1" edge="1">
          <mxGeometry width="50" height="50" relative="1" as="geometry">
            <mxPoint x="440.15999999999997" y="316" as="sourcePoint" />
            <mxPoint x="440.15999999999997" y="276" as="targetPoint" />
          </mxGeometry>
        </mxCell>
        <mxCell id="-28Fn-hyhFflDtnvuSkC-35" value="" style="endArrow=none;html=1;rounded=0;" parent="1" edge="1">
          <mxGeometry width="50" height="50" relative="1" as="geometry">
            <mxPoint x="320.15999999999997" y="316" as="sourcePoint" />
            <mxPoint x="360.15999999999997" y="316" as="targetPoint" />
          </mxGeometry>
        </mxCell>
        <mxCell id="-28Fn-hyhFflDtnvuSkC-40" value="" style="endArrow=none;html=1;rounded=0;" parent="1" edge="1">
          <mxGeometry width="50" height="50" relative="1" as="geometry">
            <mxPoint x="240.64" y="316" as="sourcePoint" />
            <mxPoint x="280.64" y="316" as="targetPoint" />
          </mxGeometry>
        </mxCell>
        <mxCell id="-28Fn-hyhFflDtnvuSkC-41" value="" style="endArrow=none;html=1;rounded=0;" parent="1" edge="1">
          <mxGeometry width="50" height="50" relative="1" as="geometry">
            <mxPoint x="440.64" y="276" as="sourcePoint" />
            <mxPoint x="480.64" y="276" as="targetPoint" />
          </mxGeometry>
        </mxCell>
        <mxCell id="-28Fn-hyhFflDtnvuSkC-42" value="" style="endArrow=none;html=1;rounded=0;" parent="1" edge="1">
          <mxGeometry width="50" height="50" relative="1" as="geometry">
            <mxPoint x="480.64" y="276" as="sourcePoint" />
            <mxPoint x="480.64" y="316" as="targetPoint" />
          </mxGeometry>
        </mxCell>
        <mxCell id="-28Fn-hyhFflDtnvuSkC-43" value="" style="endArrow=none;html=1;rounded=0;" parent="1" edge="1">
          <mxGeometry width="50" height="50" relative="1" as="geometry">
            <mxPoint x="520.16" y="316" as="sourcePoint" />
            <mxPoint x="520.16" y="276" as="targetPoint" />
          </mxGeometry>
        </mxCell>
        <mxCell id="-28Fn-hyhFflDtnvuSkC-44" value="" style="endArrow=none;html=1;rounded=0;" parent="1" edge="1">
          <mxGeometry width="50" height="50" relative="1" as="geometry">
            <mxPoint x="520.16" y="276" as="sourcePoint" />
            <mxPoint x="560.16" y="276" as="targetPoint" />
          </mxGeometry>
        </mxCell>
        <mxCell id="-28Fn-hyhFflDtnvuSkC-45" value="" style="endArrow=none;html=1;rounded=0;" parent="1" edge="1">
          <mxGeometry width="50" height="50" relative="1" as="geometry">
            <mxPoint x="560.16" y="276" as="sourcePoint" />
            <mxPoint x="560.16" y="316" as="targetPoint" />
          </mxGeometry>
        </mxCell>
        <mxCell id="-28Fn-hyhFflDtnvuSkC-46" value="" style="endArrow=none;html=1;rounded=0;" parent="1" edge="1">
          <mxGeometry width="50" height="50" relative="1" as="geometry">
            <mxPoint x="480.15999999999997" y="316" as="sourcePoint" />
            <mxPoint x="520.16" y="316" as="targetPoint" />
          </mxGeometry>
        </mxCell>
        <mxCell id="-28Fn-hyhFflDtnvuSkC-47" value="" style="endArrow=none;html=1;rounded=0;" parent="1" edge="1">
          <mxGeometry width="50" height="50" relative="1" as="geometry">
            <mxPoint x="600.64" y="316" as="sourcePoint" />
            <mxPoint x="600.64" y="276" as="targetPoint" />
          </mxGeometry>
        </mxCell>
        <mxCell id="-28Fn-hyhFflDtnvuSkC-48" value="" style="endArrow=none;html=1;rounded=0;" parent="1" edge="1">
          <mxGeometry width="50" height="50" relative="1" as="geometry">
            <mxPoint x="600.64" y="276" as="sourcePoint" />
            <mxPoint x="640.64" y="276" as="targetPoint" />
          </mxGeometry>
        </mxCell>
        <mxCell id="-28Fn-hyhFflDtnvuSkC-49" value="" style="endArrow=none;html=1;rounded=0;" parent="1" edge="1">
          <mxGeometry width="50" height="50" relative="1" as="geometry">
            <mxPoint x="640.64" y="276" as="sourcePoint" />
            <mxPoint x="640.64" y="316" as="targetPoint" />
          </mxGeometry>
        </mxCell>
        <mxCell id="-28Fn-hyhFflDtnvuSkC-50" value="" style="endArrow=none;html=1;rounded=0;" parent="1" edge="1">
          <mxGeometry width="50" height="50" relative="1" as="geometry">
            <mxPoint x="680.16" y="316" as="sourcePoint" />
            <mxPoint x="680.16" y="276" as="targetPoint" />
          </mxGeometry>
        </mxCell>
        <mxCell id="-28Fn-hyhFflDtnvuSkC-51" value="" style="endArrow=none;html=1;rounded=0;" parent="1" edge="1">
          <mxGeometry width="50" height="50" relative="1" as="geometry">
            <mxPoint x="680.16" y="276" as="sourcePoint" />
            <mxPoint x="720.16" y="276" as="targetPoint" />
          </mxGeometry>
        </mxCell>
        <mxCell id="-28Fn-hyhFflDtnvuSkC-52" value="" style="endArrow=none;html=1;rounded=0;" parent="1" edge="1">
          <mxGeometry width="50" height="50" relative="1" as="geometry">
            <mxPoint x="720.16" y="276" as="sourcePoint" />
            <mxPoint x="720.16" y="316" as="targetPoint" />
          </mxGeometry>
        </mxCell>
        <mxCell id="-28Fn-hyhFflDtnvuSkC-53" value="" style="endArrow=none;html=1;rounded=0;" parent="1" edge="1">
          <mxGeometry width="50" height="50" relative="1" as="geometry">
            <mxPoint x="720.16" y="316" as="sourcePoint" />
            <mxPoint x="760.16" y="316" as="targetPoint" />
          </mxGeometry>
        </mxCell>
        <mxCell id="-28Fn-hyhFflDtnvuSkC-55" value="" style="endArrow=none;html=1;rounded=0;" parent="1" edge="1">
          <mxGeometry width="50" height="50" relative="1" as="geometry">
            <mxPoint x="640.16" y="316" as="sourcePoint" />
            <mxPoint x="680.16" y="316" as="targetPoint" />
          </mxGeometry>
        </mxCell>
        <mxCell id="-28Fn-hyhFflDtnvuSkC-56" value="" style="endArrow=none;html=1;rounded=0;" parent="1" edge="1">
          <mxGeometry width="50" height="50" relative="1" as="geometry">
            <mxPoint x="560.64" y="316" as="sourcePoint" />
            <mxPoint x="600.64" y="316" as="targetPoint" />
          </mxGeometry>
        </mxCell>
        <mxCell id="-28Fn-hyhFflDtnvuSkC-63" value="" style="endArrow=classic;html=1;rounded=0;" parent="1" edge="1">
          <mxGeometry width="50" height="50" relative="1" as="geometry">
            <mxPoint x="280.64" y="316" as="sourcePoint" />
            <mxPoint x="280.64" y="296" as="targetPoint" />
          </mxGeometry>
        </mxCell>
        <mxCell id="-28Fn-hyhFflDtnvuSkC-64" value="" style="endArrow=classic;html=1;rounded=0;" parent="1" edge="1">
          <mxGeometry width="50" height="50" relative="1" as="geometry">
            <mxPoint x="360.64" y="316" as="sourcePoint" />
            <mxPoint x="360.64" y="296" as="targetPoint" />
          </mxGeometry>
        </mxCell>
        <mxCell id="-28Fn-hyhFflDtnvuSkC-65" value="" style="endArrow=classic;html=1;rounded=0;" parent="1" edge="1">
          <mxGeometry width="50" height="50" relative="1" as="geometry">
            <mxPoint x="440.64" y="316" as="sourcePoint" />
            <mxPoint x="440.64" y="296" as="targetPoint" />
          </mxGeometry>
        </mxCell>
        <mxCell id="-28Fn-hyhFflDtnvuSkC-66" value="" style="endArrow=classic;html=1;rounded=0;" parent="1" edge="1">
          <mxGeometry width="50" height="50" relative="1" as="geometry">
            <mxPoint x="520.64" y="316" as="sourcePoint" />
            <mxPoint x="520.64" y="296" as="targetPoint" />
          </mxGeometry>
        </mxCell>
        <mxCell id="-28Fn-hyhFflDtnvuSkC-67" value="" style="endArrow=classic;html=1;rounded=0;" parent="1" edge="1">
          <mxGeometry width="50" height="50" relative="1" as="geometry">
            <mxPoint x="600.64" y="316" as="sourcePoint" />
            <mxPoint x="600.64" y="296" as="targetPoint" />
          </mxGeometry>
        </mxCell>
        <mxCell id="-28Fn-hyhFflDtnvuSkC-68" value="" style="endArrow=classic;html=1;rounded=0;" parent="1" edge="1">
          <mxGeometry width="50" height="50" relative="1" as="geometry">
            <mxPoint x="680.64" y="316" as="sourcePoint" />
            <mxPoint x="680.64" y="296" as="targetPoint" />
          </mxGeometry>
        </mxCell>
        <mxCell id="-28Fn-hyhFflDtnvuSkC-70" value="" style="endArrow=none;html=1;rounded=0;" parent="1" edge="1">
          <mxGeometry width="50" height="50" relative="1" as="geometry">
            <mxPoint x="280.24" y="396" as="sourcePoint" />
            <mxPoint x="280.24" y="356" as="targetPoint" />
          </mxGeometry>
        </mxCell>
        <mxCell id="-28Fn-hyhFflDtnvuSkC-71" value="" style="endArrow=none;html=1;rounded=0;" parent="1" edge="1">
          <mxGeometry width="50" height="50" relative="1" as="geometry">
            <mxPoint x="280.24" y="356" as="sourcePoint" />
            <mxPoint x="320.24" y="356" as="targetPoint" />
          </mxGeometry>
        </mxCell>
        <mxCell id="-28Fn-hyhFflDtnvuSkC-75" value="" style="endArrow=none;html=1;rounded=0;" parent="1" edge="1">
          <mxGeometry width="50" height="50" relative="1" as="geometry">
            <mxPoint x="360.64" y="356" as="sourcePoint" />
            <mxPoint x="360.64" y="396" as="targetPoint" />
          </mxGeometry>
        </mxCell>
        <mxCell id="-28Fn-hyhFflDtnvuSkC-76" value="" style="endArrow=none;html=1;rounded=0;" parent="1" edge="1">
          <mxGeometry width="50" height="50" relative="1" as="geometry">
            <mxPoint x="360.64" y="396" as="sourcePoint" />
            <mxPoint x="401.52" y="396" as="targetPoint" />
          </mxGeometry>
        </mxCell>
        <mxCell id="-28Fn-hyhFflDtnvuSkC-78" value="" style="endArrow=none;html=1;rounded=0;" parent="1" edge="1">
          <mxGeometry width="50" height="50" relative="1" as="geometry">
            <mxPoint x="319.76" y="356" as="sourcePoint" />
            <mxPoint x="359.76" y="356" as="targetPoint" />
          </mxGeometry>
        </mxCell>
        <mxCell id="-28Fn-hyhFflDtnvuSkC-79" value="" style="endArrow=none;html=1;rounded=0;" parent="1" edge="1">
          <mxGeometry width="50" height="50" relative="1" as="geometry">
            <mxPoint x="240.24" y="396" as="sourcePoint" />
            <mxPoint x="280.24" y="396" as="targetPoint" />
          </mxGeometry>
        </mxCell>
        <mxCell id="-28Fn-hyhFflDtnvuSkC-80" value="" style="endArrow=none;html=1;rounded=0;" parent="1" edge="1">
          <mxGeometry width="50" height="50" relative="1" as="geometry">
            <mxPoint x="400.64" y="396" as="sourcePoint" />
            <mxPoint x="440.64" y="396" as="targetPoint" />
          </mxGeometry>
        </mxCell>
        <mxCell id="-28Fn-hyhFflDtnvuSkC-82" value="" style="endArrow=none;html=1;rounded=0;" parent="1" edge="1">
          <mxGeometry width="50" height="50" relative="1" as="geometry">
            <mxPoint x="440.24" y="396" as="sourcePoint" />
            <mxPoint x="440.24" y="356" as="targetPoint" />
          </mxGeometry>
        </mxCell>
        <mxCell id="-28Fn-hyhFflDtnvuSkC-89" value="" style="endArrow=none;html=1;rounded=0;" parent="1" edge="1">
          <mxGeometry width="50" height="50" relative="1" as="geometry">
            <mxPoint x="439.84000000000003" y="356" as="sourcePoint" />
            <mxPoint x="479.84000000000003" y="356" as="targetPoint" />
          </mxGeometry>
        </mxCell>
        <mxCell id="-28Fn-hyhFflDtnvuSkC-90" value="" style="endArrow=none;html=1;rounded=0;" parent="1" edge="1">
          <mxGeometry width="50" height="50" relative="1" as="geometry">
            <mxPoint x="520.24" y="356" as="sourcePoint" />
            <mxPoint x="520.24" y="396" as="targetPoint" />
          </mxGeometry>
        </mxCell>
        <mxCell id="-28Fn-hyhFflDtnvuSkC-91" value="" style="endArrow=none;html=1;rounded=0;" parent="1" edge="1">
          <mxGeometry width="50" height="50" relative="1" as="geometry">
            <mxPoint x="479.36" y="356" as="sourcePoint" />
            <mxPoint x="519.36" y="356" as="targetPoint" />
          </mxGeometry>
        </mxCell>
        <mxCell id="-28Fn-hyhFflDtnvuSkC-92" value="" style="endArrow=none;html=1;rounded=0;" parent="1" edge="1">
          <mxGeometry width="50" height="50" relative="1" as="geometry">
            <mxPoint x="520.64" y="396" as="sourcePoint" />
            <mxPoint x="561.52" y="396" as="targetPoint" />
          </mxGeometry>
        </mxCell>
        <mxCell id="-28Fn-hyhFflDtnvuSkC-93" value="" style="endArrow=none;html=1;rounded=0;" parent="1" edge="1">
          <mxGeometry width="50" height="50" relative="1" as="geometry">
            <mxPoint x="560.64" y="396" as="sourcePoint" />
            <mxPoint x="600.64" y="396" as="targetPoint" />
          </mxGeometry>
        </mxCell>
        <mxCell id="-28Fn-hyhFflDtnvuSkC-94" value="" style="endArrow=none;html=1;rounded=0;" parent="1" edge="1">
          <mxGeometry width="50" height="50" relative="1" as="geometry">
            <mxPoint x="600.24" y="396" as="sourcePoint" />
            <mxPoint x="600.24" y="356" as="targetPoint" />
          </mxGeometry>
        </mxCell>
        <mxCell id="-28Fn-hyhFflDtnvuSkC-95" value="" style="endArrow=none;html=1;rounded=0;" parent="1" edge="1">
          <mxGeometry width="50" height="50" relative="1" as="geometry">
            <mxPoint x="599.84" y="356" as="sourcePoint" />
            <mxPoint x="639.84" y="356" as="targetPoint" />
          </mxGeometry>
        </mxCell>
        <mxCell id="-28Fn-hyhFflDtnvuSkC-96" value="" style="endArrow=none;html=1;rounded=0;" parent="1" edge="1">
          <mxGeometry width="50" height="50" relative="1" as="geometry">
            <mxPoint x="680.24" y="356" as="sourcePoint" />
            <mxPoint x="680.24" y="396" as="targetPoint" />
          </mxGeometry>
        </mxCell>
        <mxCell id="-28Fn-hyhFflDtnvuSkC-97" value="" style="endArrow=none;html=1;rounded=0;" parent="1" edge="1">
          <mxGeometry width="50" height="50" relative="1" as="geometry">
            <mxPoint x="639.36" y="356" as="sourcePoint" />
            <mxPoint x="679.36" y="356" as="targetPoint" />
          </mxGeometry>
        </mxCell>
        <mxCell id="-28Fn-hyhFflDtnvuSkC-98" value="" style="endArrow=none;html=1;rounded=0;" parent="1" edge="1">
          <mxGeometry width="50" height="50" relative="1" as="geometry">
            <mxPoint x="680.64" y="396" as="sourcePoint" />
            <mxPoint x="721.52" y="396" as="targetPoint" />
          </mxGeometry>
        </mxCell>
        <mxCell id="-28Fn-hyhFflDtnvuSkC-99" value="" style="endArrow=none;html=1;rounded=0;" parent="1" edge="1">
          <mxGeometry width="50" height="50" relative="1" as="geometry">
            <mxPoint x="720.64" y="396" as="sourcePoint" />
            <mxPoint x="760.64" y="396" as="targetPoint" />
          </mxGeometry>
        </mxCell>
        <mxCell id="-28Fn-hyhFflDtnvuSkC-179" value="&lt;div&gt;$$f_{out}$$&lt;/div&gt;" style="text;html=1;align=center;verticalAlign=middle;whiteSpace=wrap;rounded=0;" parent="1" vertex="1">
          <mxGeometry x="280.64" y="386" width="60" height="30" as="geometry" />
        </mxCell>
        <mxCell id="-28Fn-hyhFflDtnvuSkC-133" value="" style="endArrow=none;dashed=1;html=1;dashPattern=1 3;strokeWidth=2;rounded=0;" parent="1" edge="1">
          <mxGeometry width="50" height="50" relative="1" as="geometry">
            <mxPoint x="280.64" y="352" as="sourcePoint" />
            <mxPoint x="280.64" y="312" as="targetPoint" />
          </mxGeometry>
        </mxCell>
        <mxCell id="-28Fn-hyhFflDtnvuSkC-134" value="" style="endArrow=none;dashed=1;html=1;dashPattern=1 3;strokeWidth=2;rounded=0;" parent="1" edge="1">
          <mxGeometry width="50" height="50" relative="1" as="geometry">
            <mxPoint x="360.64" y="352" as="sourcePoint" />
            <mxPoint x="360.64" y="312" as="targetPoint" />
          </mxGeometry>
        </mxCell>
        <mxCell id="-28Fn-hyhFflDtnvuSkC-135" value="" style="endArrow=none;dashed=1;html=1;dashPattern=1 3;strokeWidth=2;rounded=0;" parent="1" edge="1">
          <mxGeometry width="50" height="50" relative="1" as="geometry">
            <mxPoint x="280.64" y="432" as="sourcePoint" />
            <mxPoint x="280.64" y="392" as="targetPoint" />
          </mxGeometry>
        </mxCell>
        <mxCell id="-28Fn-hyhFflDtnvuSkC-137" value="" style="endArrow=none;dashed=1;html=1;dashPattern=1 3;strokeWidth=2;rounded=0;" parent="1" edge="1">
          <mxGeometry width="50" height="50" relative="1" as="geometry">
            <mxPoint x="440.24" y="352" as="sourcePoint" />
            <mxPoint x="440.24" y="312" as="targetPoint" />
          </mxGeometry>
        </mxCell>
        <mxCell id="-28Fn-hyhFflDtnvuSkC-138" value="" style="endArrow=none;dashed=1;html=1;dashPattern=1 3;strokeWidth=2;rounded=0;" parent="1" edge="1">
          <mxGeometry width="50" height="50" relative="1" as="geometry">
            <mxPoint x="520.24" y="352" as="sourcePoint" />
            <mxPoint x="520.24" y="312" as="targetPoint" />
          </mxGeometry>
        </mxCell>
        <mxCell id="-28Fn-hyhFflDtnvuSkC-141" value="" style="endArrow=none;dashed=1;html=1;dashPattern=1 3;strokeWidth=2;rounded=0;" parent="1" edge="1">
          <mxGeometry width="50" height="50" relative="1" as="geometry">
            <mxPoint x="600.64" y="352" as="sourcePoint" />
            <mxPoint x="600.64" y="312" as="targetPoint" />
          </mxGeometry>
        </mxCell>
        <mxCell id="-28Fn-hyhFflDtnvuSkC-142" value="" style="endArrow=none;dashed=1;html=1;dashPattern=1 3;strokeWidth=2;rounded=0;" parent="1" edge="1">
          <mxGeometry width="50" height="50" relative="1" as="geometry">
            <mxPoint x="680.64" y="352" as="sourcePoint" />
            <mxPoint x="680.64" y="312" as="targetPoint" />
          </mxGeometry>
        </mxCell>
        <mxCell id="-28Fn-hyhFflDtnvuSkC-151" value="&lt;div&gt;$$1$$&lt;/div&gt;" style="text;html=1;align=center;verticalAlign=middle;whiteSpace=wrap;rounded=0;" parent="1" vertex="1">
          <mxGeometry x="220.64" y="261" width="20" height="20" as="geometry" />
        </mxCell>
        <mxCell id="-28Fn-hyhFflDtnvuSkC-152" value="&lt;div&gt;$$0$$&lt;/div&gt;" style="text;html=1;align=center;verticalAlign=middle;whiteSpace=wrap;rounded=0;" parent="1" vertex="1">
          <mxGeometry x="220.64" y="300" width="20" height="20" as="geometry" />
        </mxCell>
        <mxCell id="-28Fn-hyhFflDtnvuSkC-157" value="&lt;div&gt;$$1$$&lt;/div&gt;" style="text;html=1;align=center;verticalAlign=middle;whiteSpace=wrap;rounded=0;" parent="1" vertex="1">
          <mxGeometry x="220.64" y="341" width="20" height="20" as="geometry" />
        </mxCell>
        <mxCell id="-28Fn-hyhFflDtnvuSkC-158" value="&lt;div&gt;$$0$$&lt;/div&gt;" style="text;html=1;align=center;verticalAlign=middle;whiteSpace=wrap;rounded=0;" parent="1" vertex="1">
          <mxGeometry x="220.64" y="380" width="20" height="20" as="geometry" />
        </mxCell>
        <mxCell id="-28Fn-hyhFflDtnvuSkC-163" value="&lt;div&gt;$$1$$&lt;/div&gt;" style="text;html=1;align=center;verticalAlign=middle;whiteSpace=wrap;rounded=0;" parent="1" vertex="1">
          <mxGeometry x="220.64" y="421" width="20" height="20" as="geometry" />
        </mxCell>
        <mxCell id="-28Fn-hyhFflDtnvuSkC-164" value="&lt;div&gt;$$0$$&lt;/div&gt;" style="text;html=1;align=center;verticalAlign=middle;whiteSpace=wrap;rounded=0;" parent="1" vertex="1">
          <mxGeometry x="220.64" y="460" width="20" height="20" as="geometry" />
        </mxCell>
        <mxCell id="-28Fn-hyhFflDtnvuSkC-175" value="" style="endArrow=classic;startArrow=classic;html=1;rounded=0;exitX=0;exitY=1;exitDx=0;exitDy=0;" parent="1" source="-28Fn-hyhFflDtnvuSkC-177" edge="1">
          <mxGeometry width="50" height="50" relative="1" as="geometry">
            <mxPoint x="280.64" y="336" as="sourcePoint" />
            <mxPoint x="360.64" y="336" as="targetPoint" />
          </mxGeometry>
        </mxCell>
        <mxCell id="-28Fn-hyhFflDtnvuSkC-176" value="" style="endArrow=classic;startArrow=classic;html=1;rounded=0;" parent="1" edge="1">
          <mxGeometry width="50" height="50" relative="1" as="geometry">
            <mxPoint x="280.64" y="416" as="sourcePoint" />
            <mxPoint x="440.64" y="416" as="targetPoint" />
          </mxGeometry>
        </mxCell>
        <mxCell id="-28Fn-hyhFflDtnvuSkC-178" value="" style="endArrow=classic;startArrow=classic;html=1;rounded=0;" parent="1" target="-28Fn-hyhFflDtnvuSkC-177" edge="1">
          <mxGeometry width="50" height="50" relative="1" as="geometry">
            <mxPoint x="280.64" y="336" as="sourcePoint" />
            <mxPoint x="360.64" y="336" as="targetPoint" />
          </mxGeometry>
        </mxCell>
        <mxCell id="-28Fn-hyhFflDtnvuSkC-177" value="&lt;div&gt;$$f_{in}$$&lt;/div&gt;" style="text;html=1;align=center;verticalAlign=middle;whiteSpace=wrap;rounded=0;" parent="1" vertex="1">
          <mxGeometry x="280.64" y="306" width="60" height="30" as="geometry" />
        </mxCell>
        <mxCell id="-28Fn-hyhFflDtnvuSkC-187" value="&lt;div&gt;$$\textrm{Output frequency}$$&lt;/div&gt;" style="text;html=1;align=center;verticalAlign=middle;whiteSpace=wrap;rounded=0;" parent="1" vertex="1">
          <mxGeometry x="107" y="440" width="120" height="30" as="geometry" />
        </mxCell>
        <mxCell id="alwupNYT4dAFXDeBNWta-1" value="" style="endArrow=none;dashed=1;html=1;dashPattern=1 3;strokeWidth=2;rounded=0;" edge="1" parent="1">
          <mxGeometry width="50" height="50" relative="1" as="geometry">
            <mxPoint x="361" y="432" as="sourcePoint" />
            <mxPoint x="361" y="392" as="targetPoint" />
          </mxGeometry>
        </mxCell>
        <mxCell id="alwupNYT4dAFXDeBNWta-2" value="" style="endArrow=none;dashed=1;html=1;dashPattern=1 3;strokeWidth=2;rounded=0;" edge="1" parent="1">
          <mxGeometry width="50" height="50" relative="1" as="geometry">
            <mxPoint x="440" y="432" as="sourcePoint" />
            <mxPoint x="440" y="392" as="targetPoint" />
          </mxGeometry>
        </mxCell>
        <mxCell id="alwupNYT4dAFXDeBNWta-3" value="" style="endArrow=none;dashed=1;html=1;dashPattern=1 3;strokeWidth=2;rounded=0;" edge="1" parent="1">
          <mxGeometry width="50" height="50" relative="1" as="geometry">
            <mxPoint x="520.36" y="432" as="sourcePoint" />
            <mxPoint x="520.36" y="392" as="targetPoint" />
          </mxGeometry>
        </mxCell>
        <mxCell id="alwupNYT4dAFXDeBNWta-4" value="" style="endArrow=none;dashed=1;html=1;dashPattern=1 3;strokeWidth=2;rounded=0;" edge="1" parent="1">
          <mxGeometry width="50" height="50" relative="1" as="geometry">
            <mxPoint x="600" y="432" as="sourcePoint" />
            <mxPoint x="600" y="392" as="targetPoint" />
          </mxGeometry>
        </mxCell>
        <mxCell id="alwupNYT4dAFXDeBNWta-5" value="" style="endArrow=none;dashed=1;html=1;dashPattern=1 3;strokeWidth=2;rounded=0;" edge="1" parent="1">
          <mxGeometry width="50" height="50" relative="1" as="geometry">
            <mxPoint x="680.36" y="432" as="sourcePoint" />
            <mxPoint x="680.36" y="392" as="targetPoint" />
          </mxGeometry>
        </mxCell>
      </root>
    </mxGraphModel>
  </diagram>
</mxfile>
